/* XPM */
static char *ff6a0fa3bda84068bb73ee9cb6379a6dWGwnZS7i5cBVQZgy[] = {
/* columns rows colors chars-per-pixel */
"32 32 139 2 ",
"   c None",
".  c #030303",
"X  c #0A0405",
"o  c #060807",
"O  c #050708",
"+  c #0C0708",
"@  c #060909",
"#  c #0B0C0C",
"$  c #120305",
"%  c #190404",
"&  c #140309",
"*  c #1C040C",
"=  c #110C0D",
"-  c #1D0C0D",
";  c #0E1212",
":  c #0F181A",
">  c #121313",
",  c #1B1314",
"<  c #131A1C",
"1  c #191A1A",
"2  c #230505",
"3  c #2D0506",
"4  c #22040E",
"5  c #290708",
"6  c #300405",
"7  c #3E0607",
"8  c #320E0E",
"9  c #3D0808",
"0  c #270410",
"q  c #2C0412",
"w  c #340517",
"e  c #3E0617",
"r  c #3D061A",
"t  c #2B1212",
"y  c #2B1A1B",
"u  c #171E22",
"i  c #1C2325",
"p  c #212324",
"a  c #252929",
"s  c #2B393F",
"d  c #363B3B",
"f  c #4B0606",
"g  c #4F0709",
"h  c #450808",
"j  c #4B0809",
"k  c #510202",
"l  c #53090B",
"z  c #430615",
"x  c #44061D",
"c  c #4B071F",
"v  c #560F11",
"b  c #5A081E",
"n  c #421112",
"m  c #4D1516",
"M  c #531112",
"N  c #5A1618",
"B  c #620A0C",
"V  c #6D0B0D",
"C  c #740C0D",
"Z  c #7D0B0D",
"A  c #740D11",
"S  c #681415",
"D  c #741315",
"F  c #7F1416",
"G  c #4D0620",
"H  c #540723",
"J  c #5A0725",
"K  c #5E0728",
"L  c #630729",
"P  c #6A072C",
"I  c #630829",
"U  c #6C082D",
"Y  c #7C0B21",
"T  c #71082C",
"R  c #7F092E",
"E  c #760831",
"W  c #7B0833",
"Q  c #423839",
"!  c #662021",
"~  c #36464F",
"^  c #37494E",
"/  c #364850",
"(  c #394A53",
")  c #3E525C",
"_  c #454646",
"`  c #49494A",
"'  c #594748",
"]  c #535454",
"[  c #5B5C5C",
"{  c #425660",
"}  c #445963",
"|  c #4E5E62",
" . c #526D79",
".. c #54707C",
"X. c #737575",
"o. c #8F0203",
"O. c #800C0D",
"+. c #8E0D0E",
"@. c #920E0F",
"#. c #9F0A0B",
"$. c #8C0E10",
"%. c #940F10",
"&. c #9D0F10",
"*. c #8D1416",
"=. c #A30F10",
"-. c #AF0E1D",
";. c #B10F1C",
":. c #AD1014",
">. c #B51012",
",. c #BB1114",
"<. c #B71019",
"1. c #86092F",
"2. c #8C0A2C",
"3. c #9B0B25",
"4. c #940B29",
"5. c #980C28",
"6. c #830931",
"7. c #A50D22",
"8. c #C51112",
"9. c #C81113",
"0. c #597783",
"q. c #5B7D84",
"w. c #60828F",
"e. c #638693",
"r. c #69909B",
"t. c #769CA4",
"y. c #78A6B2",
"u. c gray59",
"i. c #81B2BD",
"p. c #84B6C3",
"a. c #A7BFC4",
"s. c #8DC0CB",
"d. c #91CBD7",
"f. c #94CEDA",
"g. c #96D0DC",
"h. c #9ED1DD",
"j. c #C9E7ED",
"k. c #CEE9EF",
"l. c #D0E3E7",
/* pixels */
"                                      # X =                     ",
"                                  # X < i > X #                 ",
"                                > < q.i.s.a.| . . X #           ",
"                                X ^ d.f.f.k.l.^ X l % #         ",
"                            > X . s y.f.f.h.j.t.# V O.X >       ",
"                          # $ B % i ..p.f.f.g.i.: f ,.h o       ",
"                          X B 8.l o ( 0.i.d.d.r.: 9 8.@.+       ",
"                          o V 9.&.% < {  .e.w.} # g 8.,.3 #     ",
"                        ] ` 6 ,.8.C X < / ) ~ u . O.9.8.g o     ",
"      > ,               ` ` $ &.9.8.C % X @ . . h ,.8.9.B O     ",
"        t                   @ V 9.8.8.=.V j j C >.8.8.8.B .     ",
"          n                 a h 8.8.8.8.8.8.8.8.8.8.8.,.z .     ",
"          v               ] [ 2 >.8.8.8.8.8.8.8.8.8.8.3.0 o     ",
"          S N                 $ =.8.8.8.8.8.8.8.8.8.-.T & #     ",
"            D         M n     o @.9.8.8.8.8.8.8.8.;.1.x .       ",
"            %.      O.o.k Q X.= +.9.8.8.8.8.8.8.7.6.K & @       ",
"        _   *.A F #.Z m 8 y ` = @.9.8.8.8.8.;.4.E G & . #       ",
"        u.    ' ! S       = . $ =.8.,.;.7.2.T G 4 . % g $       ",
"    # 1 ] i a X.d     [   > . 2 :.5.1.U H w & . X w Y 8.9 #     ",
"    . 3 f 9 5 - + @ # p # . X B ,.2.R q . . * x P W R A % ;     ",
"    X V 8.,.>.=.@.Z V B B V $.,.8.<.7.J . $ I W E H 4 + >       ",
"    @ z 1.2.2.4.5.5.5.5.5.5.4.2.2.b e 4 . c r q 4 + #           ",
"    # q W W W W W W W W W W W W E 0 . . r W q . ;               ",
"    # * E E P U T U P L P W W W W U r . G J * #                 ",
"    > X I W x * & & & o $ K W W W W x . X o @                   ",
"      o K W E J & X   > . H W W W W w o                         ",
"      o J W W W 0 o     X H W W W W q #                         ",
"      @ J W W W 0 #     o J W W W W 4 #                         ",
"      # q L L J &       o H W W W E *                           ",
"        = = = # >       @ * J U U c +                           ",
"                          @ X $ $ . #                           ",
"                            1 @ o >                             "
};
