/* XPM */
static char *_ace55320c184c7a8d83304b50f89a32yPbMBXXcaub6Lhif[] = {
/* columns rows colors chars-per-pixel */
"32 39 149 2 ",
"   c None",
".  c #030303",
"X  c #07070C",
"o  c #080809",
"O  c #161407",
"+  c #171B1D",
"@  c #25210B",
"#  c #37290D",
"$  c #3B2B0C",
"%  c #3B310F",
"&  c #2F2616",
"*  c #342C16",
"=  c #342A1B",
"-  c #3A3513",
";  c #3C3815",
":  c #363318",
">  c #3B3A1B",
",  c #29363C",
"<  c #353D35",
"1  c #4E390A",
"2  c #46340B",
"3  c #483611",
"4  c #423E1E",
"5  c #483C14",
"6  c #523C10",
"7  c #494410",
"8  c #48421A",
"9  c #5D4310",
"0  c #534B18",
"q  c #595114",
"w  c #6E4F0E",
"e  c #6F5E0D",
"r  c #79570E",
"t  c #6A4E10",
"y  c #655B14",
"u  c #665E1A",
"i  c #715718",
"p  c #6C620E",
"a  c #6D6211",
"s  c #69641D",
"d  c #756A13",
"f  c #7F7212",
"g  c #7D751B",
"h  c #444022",
"j  c #434A34",
"k  c #6A6825",
"l  c #60622B",
"z  c #7C7223",
"x  c #70743F",
"c  c #2E3B40",
"v  c #32464E",
"b  c #35484F",
"n  c #3A4C4C",
"m  c #394B50",
"M  c #3A525E",
"N  c #3D5663",
"B  c #3F5966",
"V  c #425862",
"C  c #425E6A",
"Z  c #46616C",
"A  c #49656F",
"S  c #4A6671",
"D  c #4D6C76",
"F  c #496879",
"G  c #6A7A69",
"H  c #87600E",
"J  c #8C640C",
"K  c #996C07",
"L  c #936808",
"P  c #996C0B",
"I  c #8D740E",
"U  c #9A7708",
"Y  c #957E0E",
"T  c #996E10",
"R  c #877412",
"E  c #857911",
"W  c #8A7D12",
"Q  c #80781F",
"!  c #A1720C",
"~  c #A9770C",
"^  c #A67C0E",
"/  c #AB7809",
"(  c #B17D0A",
")  c #97800F",
"_  c #9C8B10",
"`  c #A8890E",
"'  c #AC860D",
"]  c #A5940E",
"[  c #AA980D",
"{  c #A79712",
"}  c #BBA60C",
"|  c #BEAA0E",
" . c #BFAA10",
".. c #CC8E09",
"X. c #C38A0C",
"o. c #CE9007",
"O. c #C99409",
"+. c #C59808",
"@. c #D59507",
"#. c #DD9A06",
"$. c #DA9808",
"%. c #E29C05",
"&. c #C5AF0C",
"*. c #DEA006",
"=. c #C7B008",
"-. c #CCB50A",
";. c #D6BD06",
":. c #D5BC09",
">. c #ECA404",
",. c #F5AB03",
"<. c #FDAE01",
"1. c #FFB101",
"2. c #FEBD02",
"3. c #DFC507",
"4. c #DDC308",
"5. c #E4C906",
"6. c #E8C109",
"7. c #E3CA08",
"8. c #FDC402",
"9. c #FCCC03",
"0. c #F4CD05",
"q. c #EED205",
"w. c #F3D604",
"e. c #FDD402",
"r. c #F7D903",
"t. c #FEDE01",
"y. c #F0D508",
"u. c #FFE101",
"i. c #688280",
"p. c #6F898B",
"a. c #688990",
"s. c #6B8D99",
"d. c #668C9C",
"f. c #708D97",
"g. c #6891A0",
"h. c #719CAD",
"j. c #75A3B5",
"k. c #7AAABE",
"l. c #88BED5",
"z. c #A3BFCA",
"x. c #8EC6DC",
"c. c #8FC8DF",
"v. c #AFD8E6",
"b. c #B0D7E5",
"n. c #C4E1EC",
"m. c #C9E4EC",
"M. c #E8F3F7",
"N. c #EFF8FA",
"B. c #F0F9FB",
/* pixels */
"                                                                ",
"                                                                ",
"                                                                ",
"                            o o                                 ",
"                            . . ;                               ",
"                            . O | E                             ",
"                              @ 5.w.d                           ",
"                              @ :.u.:.8                         ",
"        o . o                   Y t.u.W                         ",
"      o . . o f ] a ;           & ' 0.&.                        ",
"        o . . p u.r.:.W h   4 y a e I R *                       ",
"            . O } u.u.u.&.y  .w.r.t.w.3.] q                     ",
"              X - _ -.q.t.y.t.u.u.u.u.u.u.7.z                   ",
"                    : 0 ` t.u.u.w.;.&.} } =.} 5                 ",
"                      i 6.t.u.4.x i.a.s.f.p.G <                 ",
"                      ^ t.u.u.Q F l.c.n.N.B.M.z.V               ",
"                  7 % O.t.u.r.l C h.x.b.m.n.m.v.k.c             ",
"              u =.7.I *.t.u.t.k B D g.j.k.k.k.j.d.,             ",
"              [ u.r.I >.t.u.u.{ m Z Z Z A A S Z v +             ",
"              +.2.,.J ,.e.u.u.w.g n N N N M b j >               ",
"            # @.1.>.H ,.9.u.t.u.r.} g s s g ] 3.)               ",
"            $ #.1.>.J ,.2.t.t.t.t.u.u.t.t.u.u.t.U               ",
"            $ #.1.>.J <.1.e.u.t.t.t.t.t.t.t.u.e.K               ",
"            $ #.1.>.J <.<.8.t.t.t.t.t.t.t.t.t.8.K               ",
"            $ #.1.>.J <.<.1.9.t.u.u.u.u.u.u.e.1.K               ",
"            $ $.1.>.J ,.<.<.1.8.9.e.e.e.e.8.1.1.H               ",
"              T ,.,.J >.1.<.<.<.<.1.1.1.1.<.<.<.w               ",
"                t H 9 %.1.<.<.<.1.<.1.<.,.,.1.>.6               ",
"                    = ..1.<.<.,./ K L J J X.1...*               ",
"                      ( 1.<.1.>.1     H >.<.1.!                 ",
"                      P 1.<.1.>.1     J 1.1.1.J                 ",
"                      r <.1.1.>.2     5 ~ ( P 3                 ",
"                        J ..o.J                                 ",
"                                                                ",
"                                                                ",
"                                                                ",
"                                                                ",
"                                                                ",
"                                                                "
};
