/* XPM */
static char *_5fca356b585468dfd171feafa447bb3lhCe1qPF3VR26qDv[] = {
/* columns rows colors chars-per-pixel */
"32 39 210 2 ",
"   c #1B040E",
".  c #26030E",
"X  c #29030F",
"o  c #36010F",
"O  c #38010F",
"+  c #260310",
"@  c #2B0310",
"#  c #280913",
"$  c #350211",
"%  c #3A0211",
"&  c #300F16",
"*  c #341B1E",
"=  c #342A2D",
"-  c #44040F",
";  c #450412",
":  c #4C0413",
">  c #460813",
",  c #4B0B13",
"<  c #520315",
"1  c #5C0214",
"2  c #500C15",
"3  c #650316",
"4  c #6B0316",
"5  c #650219",
"6  c #690218",
"7  c #740316",
"8  c #7B0217",
"9  c #7C0917",
"0  c #7B0818",
"q  c #4F1E27",
"w  c #532D34",
"e  c #5B2B32",
"r  c #652F32",
"t  c #6E3B3A",
"y  c #6F403D",
"u  c #5B3E43",
"i  c #664641",
"p  c #6C4D4D",
"a  c #714542",
"s  c #734947",
"d  c #744E4D",
"f  c #7A4B4A",
"g  c #6E514E",
"h  c #76504F",
"j  c #7B514C",
"k  c #6D5756",
"l  c #755351",
"z  c #7D5652",
"x  c #7B5853",
"c  c #70585A",
"v  c #715F60",
"b  c #810416",
"n  c #8D0416",
"m  c #86051A",
"M  c #8A061A",
"N  c #840A1A",
"B  c #8E091C",
"V  c #940517",
"C  c #9A0617",
"Z  c #940618",
"A  c #9B0719",
"S  c #920A1C",
"D  c #9D091D",
"F  c #89131B",
"G  c #92161D",
"H  c #9D111C",
"J  c #A90717",
"K  c #AC0817",
"L  c #A40618",
"P  c #AB071A",
"I  c #A40B1B",
"U  c #AB0A1A",
"Y  c #B0071A",
"T  c #B30A1C",
"R  c #BB0D1D",
"E  c #A4131D",
"W  c #AC131D",
"Q  c #AF181F",
"!  c #B6141F",
"~  c #BE121F",
"^  c #B7191F",
"/  c #920B20",
"(  c #921A21",
")  c #9B1B23",
"_  c #BC0E20",
"`  c #A41621",
"'  c #AC1621",
"]  c #AD1A22",
"[  c #B71420",
"{  c #B31A23",
"}  c #BA1B23",
"|  c #BB1927",
" . c #A82026",
".. c #B2232A",
"X. c #BA242A",
"o. c #B7393C",
"O. c #C20F1D",
"+. c #C3111F",
"@. c #CC131F",
"#. c #CF181F",
"$. c #DA151F",
"%. c #D4181F",
"&. c #E11A1F",
"*. c #C40E21",
"=. c #C41322",
"-. c #CC1522",
";. c #C51D25",
":. c #C91E25",
">. c #C51E2A",
",. c #D41622",
"<. c #DB1622",
"1. c #D51922",
"2. c #DC1A23",
"3. c #DB1F2B",
"4. c #E01720",
"5. c #E31C23",
"6. c #C72026",
"7. c #C92126",
"8. c #C4222B",
"9. c #CB242A",
"0. c #CD292E",
"q. c #DB252B",
"w. c #D12D2F",
"e. c #CD2631",
"r. c #CA2C31",
"t. c #DF2730",
"y. c #D42C32",
"u. c #DC2B34",
"i. c #C73439",
"p. c #D63536",
"a. c #DB3434",
"s. c #DA363B",
"d. c #DB3B3C",
"f. c #E42126",
"g. c #E82427",
"h. c #E3242B",
"j. c #E2282E",
"k. c #E12E33",
"l. c #E53134",
"z. c #E73437",
"x. c #E43B3D",
"c. c #EC3D3D",
"v. c #E6423F",
"b. c #EF403E",
"n. c #C93F40",
"m. c #DF3D41",
"M. c #E53E41",
"N. c #B44A4A",
"B. c #BA5C58",
"V. c #BA615C",
"C. c #986E6F",
"Z. c #BC706B",
"A. c #CA4342",
"S. c #CA4C4D",
"D. c #DE4240",
"F. c #DF4448",
"G. c #DF494E",
"H. c #C65D5C",
"J. c #DF5556",
"K. c #D65758",
"L. c #E34243",
"P. c #E74346",
"I. c #E1494F",
"U. c #E25757",
"Y. c #CE645F",
"T. c #DE615F",
"R. c #E55F60",
"E. c #CC6561",
"W. c #C76966",
"Q. c #D16460",
"!. c #DE6261",
"~. c #CE7E7A",
"^. c #D77E79",
"/. c #E96664",
"(. c #EA7572",
"). c #E97F7A",
"_. c #CC877F",
"`. c #E9807A",
"'. c #9E8D88",
"]. c #A18E8A",
"[. c #BD8B83",
"{. c #A29590",
"}. c #CE9189",
"|. c #DD9D94",
" X c #E8918A",
".X c #EF9C94",
"XX c #CCA297",
"oX c #C8A398",
"OX c #EDA49B",
"+X c #CFAEA3",
"@X c #D3B5A9",
"#X c #EAAFA6",
"$X c #ECB1A6",
"%X c #EDB6AA",
"&X c #F2B8AC",
"*X c #EFBDB2",
"=X c #ECCBBF",
"-X c #F2C2B5",
";X c #F1CABB",
":X c #F3CEC0",
">X c #F3D2C2",
",X c #F6DECC",
"<X c #F6E9D6",
"1X c #F8E8D6",
"2X c #F9F2DE",
"3X c #F7EFE0",
"4X c #FAF5E0",
"5X c #FAF9E4",
"6X c #FAFEEB",
"7X c #FBFFF1",
/* pixels */
"= k d d d d d d h h d d d d d d l d l l g p p p d d d l l l i * ",
"c V.d.x.d.s.s.x.c.c.b.c.c.x.x.x.M.M.P.P.L.D.d.d.d.p.p.d.d.A.N.q ",
"x S...1.5.5.2.<.4.5.5.5.5.4.5.2.3.1.1.<.<.4.5.5.5.5.2.3.}  .| < ",
"x d.9.G Z D D D D D D D D D D D D D D D D D D D D D D S ) 7.~ < ",
"x x.<.S $ $ % O O O O % % O O O % % % % % $ $ o o o o ; 8.,.=.: ",
"z x.,.S . $ $ @ $ $ $ $ $ $ % $ $ $ % $ @ % % $ X $ @ $ 0.1.=.: ",
"z x.<.S . < 3 3 7 4 7 4 7 8 8 7 3 7 8 7 3 8 8 8 3 7 1 % y.2.=.: ",
"z c.4.B . 1 b B L C L D I K T P Z I Y P S Y K Y B D b > p.5.=.: ",
"z c.4.B + 5 C ' @.@.@.=.;.$.<.,.! ;.<.#.Q <.<.<.' =.I , d.5.=.: ",
"z c.4.S + 5 I { q.j.q.9.9.h.4.q.X.9.j.1...j.j.t...1.W , d.5.=.: ",
"z c.<.S + 6 J N.;X>X>X_.~.&Xm.OXXXK.-XJ.|.>X:X>X^.2.W , d.5.=.: ",
"j z.<.S X 6 J V.5X%X XE.E.2X$X3X[.E.4X!.W.;X5X#XH.5.W , x.f.=.: ",
"f l.<.S X 6 K V.4X/.$.;.r.-X6X1Xo.Y.2X!.W ).2XG.' f.W , x.h.=.: ",
"f z.<.S + 6 K V.5X;X$XS.:.(.6XOX{ E.2X!.Q `.2XI.' f.W , v.g.=.: ",
"f z.<.S X 6 K B.5X>X%XS.:./.6X.X^ E.2X!.Q `.2XG.' f.W , v.g.=.: ",
"f z.<.S X 4 K V.2XR.$.;.9.&X7X,Xo.Y.2XT.Q ).2XI.' 5.W 2 v.g.-.< ",
"f l.<.S X 4 K V.4X XU.n.S.1X=X2XZ.Y.4X!.Q ).2XI.' 5.W 2 v.f.~ ; ",
"f k.<.B + 6 K B.<X<X<X}._.,XJ.*X+XQ.,XJ.Q (.,XL.' 2.W 2 x.f._ : ",
"f l.<.B + 4 U ..L.F.F.i.i.P.1.s.o.r.M.q.{ k.L.3.] 2.W 2 x.5.=.: ",
"f l.<.S + 4 U { 4.4.$.;.:.5.1.2.} 7.5.2.{ 5.&.2.] 5.W 2 x.5.=.: ",
"f l.<.S X 4 U { 5.5.1.;.7.5.<.2.} 7.5.2.{ 5.2.! F ;.W 2 x.2._ : ",
"f k.2.S X 4 U { 5.4.<.:.7.5.5.2.} :.<.1.{ 5.E u v e S 2 x.2._ : ",
"f u.<.S X 4 U { 5.5.2.:.6.4.5.2.} :.<.3.{ 5.G {.@Xw 4 2 x.5._ : ",
"f u.,.S X 4 U { 5.<.2.6.:.4.5.1.} :.<.3.] 2.G ].oXw 1 2 a.<.R : ",
"f k.,.S . 6 U { <.<.1.;.7.<.5.2.} :.1.1.] 1.( '.oXw : , a.1.R : ",
"f k.<.S . 6 U { 1.1.1.;.7.<.5.2.} >.1.1.' 2.( '.oXw : , a.,.R : ",
"f u.1.S X 6 U { 1.1.1.;.7.1.<.2.{ ;.,.1.' 5.( ].oXw ; , a.,.R : ",
"f y.,.S . 3 I { 1.1.1.;.6.1.1.5.{ ;.1.,.' 5.G c C.q ; , a.-.R : ",
"s y.,./ . 3 I { 1.1.,.;.6.1.1.2.{ ;.1.,.' 5.[ % # $ < , p.-.R : ",
"s e.-.N . 3 I ' ,.1.,.;.;.1.,.5.{ ;.,.-.' 1.-.I 1 4 1 , y.=.T : ",
"s e.-.N . 3 D ' -.#.%.} ;.<.,.5.{ } ,.-.' ,.,.-.S A 8 , w.+.Y : ",
"a 8.-.B . 3 C ` -.#.,.} } 1.,.<.' } ,.=.' -.-.-.` [ S , w._ P : ",
"a 8.*.M . 3 V E -.-.-.{ | ,.-.1.W { #.+.` +.#.-.` ! S , 0.R P ; ",
"y | *.m . 3 V H =.+.@.{ | -.=.-.E ! @.~ E R @.+.H T S , 9.T P ; ",
"t | R m . 3 V H O.R O.' ' +.+.+.E W R R H R +.R H T n , 8.P P ; ",
"t | R m . 1 n S R T R E W O.T R H W R T D Y R Y S U M > 8.I P ; ",
"t | R m . 1 n S T Y K D W R T R A I Y U S P T P S Y M ; 8.Y A - ",
"r ' P 0 . < 7 0 V V n N B V Z C 9 N V S 0 n V n 0 Z 7 % { I b o ",
"& ; : %   . . . X @ X X X X @ @ . . @ @ . X X @ + X .   > : ; # "
};
