/* XPM */
static char *c42a409915eb47d7aebf83a98dc28a6chLviwC0OPrTat6aP[] = {
/* columns rows colors chars-per-pixel */
"32 32 139 2 ",
"   c None",
".  c #030303",
"X  c #0A0405",
"o  c #060807",
"O  c #050708",
"+  c #0C0708",
"@  c #060909",
"#  c #0B0C0C",
"$  c #120305",
"%  c #190404",
"&  c #140309",
"*  c #1C040C",
"=  c #110C0D",
"-  c #1D0C0D",
";  c #0E1212",
":  c #0F181A",
">  c #121313",
",  c #1B1314",
"<  c #131A1C",
"1  c #191A1A",
"2  c #230505",
"3  c #2D0506",
"4  c #22040E",
"5  c #290708",
"6  c #300405",
"7  c #3E0607",
"8  c #310E0E",
"9  c #3D0808",
"0  c #270410",
"q  c #2C0412",
"w  c #340517",
"e  c #3E0617",
"r  c #3D061A",
"t  c #2B1212",
"y  c #2B1A1B",
"u  c #171E22",
"i  c #1C2325",
"p  c #212324",
"a  c #252929",
"s  c #2B393F",
"d  c #353B3B",
"f  c #4B0606",
"g  c #4F0709",
"h  c #450808",
"j  c #4B0809",
"k  c #510202",
"l  c #53090B",
"z  c #430615",
"x  c #44061D",
"c  c #4B071F",
"v  c #560F11",
"b  c #5A081E",
"n  c #421112",
"m  c #4C1416",
"M  c #531112",
"N  c #5A1618",
"B  c #620A0C",
"V  c #6D0B0D",
"C  c #740C0D",
"Z  c #7D0B0C",
"A  c #740D11",
"S  c #681415",
"D  c #741315",
"F  c #7F1416",
"G  c #4D0620",
"H  c #540723",
"J  c #5A0725",
"K  c #5E0728",
"L  c #630729",
"P  c #6A072C",
"I  c #630829",
"U  c #6C082D",
"Y  c #7C0B21",
"T  c #71082C",
"R  c #7F092E",
"E  c #760831",
"W  c #7B0833",
"Q  c #423839",
"!  c #662021",
"~  c #36464F",
"^  c #37494E",
"/  c #364850",
"(  c #394A53",
")  c #3E525C",
"_  c #454646",
"`  c #49494A",
"'  c #594748",
"]  c #535454",
"[  c #5B5C5C",
"{  c #425660",
"}  c #445963",
"|  c #4E5E62",
" . c #526D79",
".. c #54707C",
"X. c #737575",
"o. c #8F0203",
"O. c #800C0D",
"+. c #8E0D0E",
"@. c #920E0F",
"#. c #9F0A0B",
"$. c #8C0E10",
"%. c #940F10",
"&. c #9D0F10",
"*. c #8D1416",
"=. c #A30F10",
"-. c #AF0E1D",
";. c #B10F1C",
":. c #AD1014",
">. c #B51012",
",. c #BB1114",
"<. c #B71019",
"1. c #86092F",
"2. c #8C0A2C",
"3. c #9B0B25",
"4. c #940B29",
"5. c #980C28",
"6. c #830931",
"7. c #A50D22",
"8. c #C51112",
"9. c #C81113",
"0. c #597783",
"q. c #5B7D84",
"w. c #60828F",
"e. c #638693",
"r. c #69909B",
"t. c #769CA4",
"y. c #78A6B2",
"u. c gray59",
"i. c #81B2BD",
"p. c #84B6C3",
"a. c #A7BFC4",
"s. c #8DC0CB",
"d. c #91CBD7",
"f. c #94CEDA",
"g. c #96D0DC",
"h. c #9ED1DD",
"j. c #C9E7ED",
"k. c #CEE9EF",
"l. c #D0E3E7",
/* pixels */
"                    = o #                                       ",
"                # o > i < o #                                   ",
"          # o . . | a.s.i.q.< >                                 ",
"        # % l X ^ l.k.f.f.d.^ .                                 ",
"      > X O.V # t.j.h.f.f.y.s . o >                             ",
"      o h ,.f : i.g.f.f.p...i % B $ #                           ",
"      X @.8.7 : r.d.d.i.0.( o l 8.B o                           ",
"    # 3 ,.8.g # } w.e. .{ < % &.9.V X                           ",
"    o j 8.9.O.. u ~ ) / < X C 8.,.6 ` ]                         ",
"    O B 9.8.,.h . . @ o % C 8.9.&.$ ` `               , 1       ",
"    . B 8.8.8.>.C j j V =.8.8.9.V #                   t         ",
"    . z ,.8.8.8.8.8.8.8.8.8.8.8.h a                 n           ",
"    o q 3.8.8.8.8.8.8.8.8.8.8.>.2 [ ]               v           ",
"    # & T -.8.8.8.8.8.8.8.8.8.=.%                 N S           ",
"      . x 1.;.8.8.8.8.8.8.8.9.@.X     n M         D             ",
"      # & K 6.7.8.8.8.8.8.8.9.+.= X.Q k o.O.      %.            ",
"      # . & G E 4.;.8.8.8.8.9.@.= ` y 8 m Z #.F A *.  _         ",
"      % j % . 4 G T 2.7.;.,.8.=.$ . =       S ! '     u.        ",
"    # 9 8.Y w X . & w H U 1.3.:.2 . 1   [     d X.a i ] 1 #     ",
"    ; % A R W P x * . . q R 2.,.B X . # p # # + - 5 7 f 3 .     ",
"      > + 4 H E W I $ . H 7.<.8.,.$.V B B V Z @.=.>.,.8.V o     ",
"          # + 4 q r c . 4 e b 1.2.4.4.5.5.5.3.4.4.2.1.1.z #     ",
"              ; . q W r . . q E W W W W W W W W W W W W q #     ",
"                # * J G . r U W W W W P L P U T U P E E * #     ",
"                  # X . . x W W W W K $ X & & & * x W I X >     ",
"                        o w W W W W H . 1   o & J E W K X       ",
"                        # q W W W W H o     o 0 W W W J X       ",
"                        # 4 W W W W J X     # q W W W J #       ",
"                          * E W W W H X       & J L L q #       ",
"                          X c U U J * #       > # = = =         ",
"                          # . $ $ X #                           ",
"                            1 o # 1                             "
};
